<svg xmlns="http://www.w3.org/2000/svg" viewBox="0 0 64.535 64.535"><path fill="#e30613" d="M32.267 58.678c14.54 0 26.342-11.802 26.342-26.342 0-11.148-6.932-20.69-16.727-24.531a26.3 26.3 0 0 0-10.111-1.807L36.017 4l-2.294-.453-6.034 2.844h-.002C15.327 8.56 5.925 19.359 5.925 32.336c0 14.539 11.802 26.342 26.342 26.342zm0-1.477c-13.741 0-24.865-11.124-24.865-24.865 0-12.603 9.358-23.002 21.51-24.639L33.517 10h3.75L31.78 7.506c.027 0 .053-.006.08-.006h1.586a24.7 24.7 0 0 1 7.899 1.68c9.241 3.625 15.789 12.62 15.789 23.156 0 13.74-11.124 24.865-24.865 24.865z"/><path fill="#e30613" d="M32.267 62.006c16.415 0 29.738-13.323 29.738-29.738 0-14.904-10.983-27.26-25.291-29.408h-.002L31.017 0h-3.75l5.553 2.536a31 31 0 0 0-.553-.007c-16.415 0-29.738 13.323-29.738 29.74 0 16.414 13.323 29.737 29.738 29.737zm0-1.477c-15.617 0-28.262-12.645-28.262-28.262S16.65 4.005 32.267 4.005c.16 0 .479.004.479.004l-6.791 3.196 4.446-.564 5.192-2.442h.002C49.642 5.844 60.53 17.776 60.53 32.267c0 15.617-12.645 28.262-28.262 28.262z"/></svg>