<svg xmlns="http://www.w3.org/2000/svg" viewBox="0 0 64.535 64.535"><path fill="#e30613" d="M35.028 58.533c14.46-1.52 24.964-14.49 23.444-28.951-1.165-11.087-9.057-19.851-19.2-22.648a26.3 26.3 0 0 0-10.244-.74l4.014-2.431-2.33-.21L25.01 7.01h-.002C12.942 10.461 4.72 22.183 6.077 35.09c1.519 14.46 14.49 24.964 28.95 23.444zm-.155-1.468C21.208 58.5 8.982 48.6 7.545 34.935 6.228 22.4 14.448 11.08 26.362 8.182l4.821 1.81 3.73-.393-5.72-1.907q.04-.006.08-.014l1.577-.166a24.7 24.7 0 0 1 8.03.845c9.57 2.64 17.022 10.9 18.123 21.379 1.437 13.666-8.463 25.892-22.13 27.328z"/><path fill="#e30613" d="M29.158 61.843C45.484 63.559 60.126 51.7 61.842 35.376 63.4 20.554 53.77 7.118 39.764 3.486h-.002L34.396.046l-3.729-.391 5.257 3.101a31 31 0 0 0-.549-.064C19.05.976 4.408 12.834 2.692 29.16.976 45.485 12.833 60.128 29.158 61.843zm.155-1.469C13.78 58.742 2.527 44.844 4.16 29.314S19.69 2.527 35.22 4.16c.159.017.476.054.476.054l-7.088 2.469 4.48-.097L38.51 4.7h.002c13.798 3.104 23.378 16.11 21.863 30.52-1.632 15.532-15.53 26.786-31.061 25.154z"/></svg>