<svg xmlns="http://www.w3.org/2000/svg" viewBox="0 0 64.535 64.535"><path fill="#e30613" d="M37.758 58.1c14.222-3.022 23.313-17.02 20.29-31.242C55.73 15.953 46.965 8.062 36.586 6.34a26.3 26.3 0 0 0-10.266.335l3.738-2.837-2.339.034-5.31 4.036h-.002c-11.638 4.693-18.59 17.21-15.892 29.903 3.022 14.221 17.02 23.313 31.243 20.29zm-.307-1.444c-13.44 2.857-26.634-5.71-29.491-19.152C5.34 25.177 12.33 13.06 23.877 8.932l4.983 1.295 3.669-.78-5.887-1.299c.026-.006.05-.016.077-.022l1.551-.33a24.7 24.7 0 0 1 8.075.001c9.793 1.625 18.068 9.062 20.258 19.367 2.857 13.441-5.71 26.635-19.152 29.492z"/><path fill="#e30613" d="M26.084 61.356c16.056 3.413 31.858-6.849 35.271-22.905C64.454 23.872 56.28 9.503 42.731 4.427h-.002L37.753.446l-3.668-.78L38.989 3.3a31 31 0 0 0-.54-.12C22.394-.235 6.593 10.027 3.18 26.084s6.848 31.859 22.905 35.271zm.307-1.444C11.115 56.665 1.376 41.667 4.623 26.392s18.244-25.016 33.52-21.77l.467.104-7.307 1.714 4.467.373 5.586-1.31h.002c13.398 4.53 21.567 18.465 18.554 32.64-3.247 15.275-18.245 25.015-33.52 21.768z"/></svg>