<svg xmlns="http://www.w3.org/2000/svg" viewBox="0 0 64.535 64.535"><path fill="#e30613" d="M40.428 57.385c13.829-4.493 21.406-19.364 16.913-33.193C53.896 13.59 44.355 6.658 33.852 6.031a26.3 26.3 0 0 0-10.175 1.406l3.421-3.212-2.322.278-4.86 4.569h-.001c-11.084 5.883-16.69 19.059-12.68 31.4C11.728 54.3 26.6 61.879 40.428 57.386zm-.456-1.404C26.903 60.227 12.886 53.085 8.64 40.017 4.746 28.03 10.432 15.249 21.484 9.937l5.091.766 3.567-1.158-5.99-.676q.036-.016.074-.03l1.508-.49a24.7 24.7 0 0 1 8.03-.844c9.91.592 18.917 7.123 22.173 17.143 4.246 13.069-2.896 27.086-15.965 31.332z"/><path fill="#e30613" d="M23.077 60.55c15.612 5.073 32.4-3.481 37.472-19.093 4.606-14.174-2.021-29.32-14.965-35.784h-.002l-4.533-4.48L37.483.034l4.497 4.127q-.26-.091-.524-.176C25.845-1.088 9.056 7.466 3.984 23.079c-5.073 15.611 3.481 32.4 19.093 37.472zm.457-1.404C8.68 54.32.562 38.386 5.388 23.534S26.148.562 41.001 5.388l.453.152-7.446.94 4.403.838 5.693-.718h.002c12.851 5.906 19.518 20.618 15.04 34.4-4.826 14.853-20.76 22.971-35.612 18.145z"/></svg>