<svg xmlns="http://www.w3.org/2000/svg" viewBox="0 0 64.535 64.535"><path fill="#e30613" d="M43.009 56.395c13.283-5.914 19.264-21.496 13.35-34.78C51.825 11.433 41.612 5.536 31.101 6.01a26.3 26.3 0 0 0-9.972 2.462l3.066-3.552-2.28.52-4.356 5.051h-.001C7.15 17.5 2.952 31.19 8.23 43.045c5.913 13.282 21.496 19.265 34.779 13.35zm-.6-1.35c-12.554 5.59-27.24-.048-32.83-12.601-5.125-11.514-.806-24.82 9.63-31.258l5.143.23 3.426-1.525-6.028-.046q.035-.018.07-.038l1.45-.645a24.7 24.7 0 0 1 7.898-1.678c9.917-.447 19.557 5.107 23.843 14.732 5.589 12.553-.05 27.24-12.602 32.829z"/><path fill="#e30613" d="M20.171 59.435c14.996 6.676 32.586-.076 39.263-15.072 6.062-13.615 1.054-29.37-11.143-37.152h-.002l-4.04-4.93L40.823.756l4.042 4.575a31 31 0 0 0-.503-.23C29.367-1.577 11.776 5.175 5.1 20.171s.076 32.586 15.072 39.263zm.6-1.35C6.506 51.735.097 35.04 6.45 20.773S29.495.096 43.762 6.448c.146.065.436.199.436.199l-7.504.157 4.292 1.293 5.736-.119h.002c12.164 7.217 17.256 22.546 11.362 35.784-6.352 14.267-23.047 20.675-37.314 14.323z"/></svg>