<svg xmlns="http://www.w3.org/2000/svg" viewBox="0 0 64.535 64.535"><path fill="#e30613" d="M45.472 55.14c12.592-7.27 16.912-23.392 9.642-35.984C49.54 9.5 38.766 4.705 28.363 6.275a26.3 26.3 0 0 0-9.66 3.49l2.678-3.853-2.214.755-3.803 5.48h-.002C5.744 20.208 3 34.26 9.488 45.498 16.758 58.09 32.88 62.41 45.472 55.14zm-.738-1.28c-11.9 6.871-27.096 2.8-33.966-9.1-6.302-10.915-3.397-24.6 6.308-32.093l5.14-.309 3.248-1.875-6 .584q.033-.022.066-.045l1.374-.793a24.7 24.7 0 0 1 7.68-2.494c9.816-1.482 19.983 3.034 25.251 12.159 6.87 11.9 2.8 27.096-9.1 33.966z"/><path fill="#e30613" d="M17.398 58.021c14.216 8.208 32.415 3.331 40.623-10.884 7.452-12.908 4.118-29.1-7.199-38.114h-.002l-3.502-5.325-3.248-1.875 3.541 4.972q-.235-.143-.475-.282C32.92-1.694 14.72 3.183 6.513 17.4S3.182 49.814 17.397 58.022zm.738-1.278C4.611 48.934-.017 31.66 7.792 18.136S32.873-.017 46.398 7.791c.138.08.413.243.413.243l-7.48-.628 4.133 1.735 5.718.481.002.001c11.342 8.448 14.805 24.225 7.56 36.775-7.81 13.524-25.083 18.153-38.607 10.344z"/></svg>