<svg xmlns="http://www.w3.org/2000/svg" viewBox="0 0 64.535 64.535"><path fill="#e30613" d="M47.79 53.634c11.764-8.546 14.375-25.031 5.828-36.794C47.066 7.82 35.85 4.176 25.667 6.825a26.3 26.3 0 0 0-9.242 4.482l2.26-4.112-2.122.982-3.21 5.847-.002.001c-8.723 9.02-9.983 23.283-2.355 33.781 8.546 11.763 25.031 14.375 36.794 5.828zm-.867-1.194c-11.117 8.076-26.655 5.615-34.732-5.501-7.408-10.196-5.95-24.11 2.92-32.577l5.08-.844 3.033-2.204-5.906 1.208q.03-.027.061-.052l1.283-.932a24.7 24.7 0 0 1 7.377-3.284c9.608-2.499 20.192.93 26.385 9.453C60.5 28.824 58.04 44.362 46.923 52.44z"/><path fill="#e30613" d="M14.787 56.326c13.28 9.649 31.89 6.701 41.538-6.579 8.76-12.058 7.138-28.51-3.175-38.657l-.001-.001-2.927-5.661-3.034-2.204 3.002 5.314q-.22-.166-.443-.33c-13.28-9.648-31.89-6.7-41.54 6.58-9.648 13.28-6.7 31.89 6.58 41.538zm.868-1.195C3.021 45.952.223 28.29 9.403 15.655S36.245.223 48.879 9.403c.13.093.385.284.385.284l-7.372-1.406 3.928 2.157 5.636 1.076.002.001c10.397 9.588 12.192 25.64 3.674 37.364-9.18 12.634-26.842 15.431-39.476 6.252z"/></svg>