<svg xmlns="http://www.w3.org/2000/svg" viewBox="0 0 64.535 64.535"><path fill="#e30613" d="M51.894 49.94c9.729-10.806 8.855-27.473-1.95-37.202-8.284-7.46-20.013-8.692-29.423-3.984a26.3 26.3 0 0 0-8.108 6.305l1.356-4.492-1.871 1.401-1.925 6.387v.002C3.314 28.993 5.047 43.207 14.69 51.89c10.805 9.728 27.473 8.855 37.202-1.95zm-1.098-.988c-9.194 10.211-24.904 11.035-35.116 1.84C6.314 42.36 4.848 28.446 11.763 18.32l4.793-1.881 2.509-2.787-5.526 2.41c.018-.021.032-.044.05-.064l1.06-1.179a24.7 24.7 0 0 1 6.534-4.745c8.878-4.442 19.943-3.29 27.773 3.76 10.212 9.195 11.035 24.905 1.84 35.117z"/><path fill="#e30613" d="M10.167 52.166c10.984 12.199 29.8 13.185 41.998 2.201 11.076-9.973 12.91-26.402 4.932-38.473l-.001-.001-1.686-6.146L52.9 6.96l1.832 5.823q-.18-.208-.365-.415c-10.984-12.198-29.8-13.185-42-2.2-12.198 10.984-13.184 29.8-2.2 41.998zm1.098-.988C.815 39.572 1.75 21.714 13.356 11.264S42.82 1.75 53.27 13.356c.107.119.317.358.317.358l-6.919-2.908 3.395 2.927 5.289 2.224.001.002c8.177 11.54 6.595 27.614-4.174 37.31-11.606 10.45-29.464 9.514-39.914-2.091z"/></svg>