<svg xmlns="http://www.w3.org/2000/svg" viewBox="0 0 64.535 64.535"><path fill="#e30613" d="M53.634 47.791c8.546-11.763 5.935-28.248-5.828-36.794-9.02-6.553-20.813-6.553-29.678-.887a26.3 26.3 0 0 0-7.405 7.119l.88-4.61-1.716 1.59-1.246 6.553v.001c-5.51 11.274-2.3 25.229 8.198 32.856 11.762 8.546 28.248 5.936 36.794-5.827zm-1.195-.867c-8.077 11.116-23.615 13.577-34.732 5.5C7.511 45.017 4.6 31.334 10.417 20.54l4.57-2.372 2.204-3.034-5.243 2.974q.021-.034.042-.068l.932-1.283a24.7 24.7 0 0 1 6.002-5.403c8.365-5.346 19.49-5.356 28.014.837 11.117 8.077 13.578 23.615 5.5 34.732z"/><path fill="#e30613" d="M8.208 49.747c9.649 13.28 28.258 16.227 41.538 6.579 12.058-8.76 15.599-24.909 8.926-37.747v-.001l-1.035-6.288-2.204-3.034 1.212 5.982q-.156-.226-.32-.45C46.678 1.507 28.069-1.44 14.788 8.207c-13.28 9.65-16.228 28.259-6.58 41.539zm1.195-.868C.223 36.245 3.02 18.582 15.655 9.403s30.297-6.382 39.477 6.252c.094.13.278.39.278.39l-6.577-3.616 3.07 3.266 5.027 2.765.002.001c6.925 12.331 3.671 28.153-8.052 36.67-12.634 9.18-30.297 6.382-39.476-6.252z"/></svg>