<svg xmlns="http://www.w3.org/2000/svg" viewBox="0 0 64.535 64.535"><path fill="#e30613" d="M55.14 45.473c7.27-12.592 2.95-28.714-9.643-35.984-9.654-5.574-21.383-4.34-29.608 2.22a26.3 26.3 0 0 0-6.62 7.854l.393-4.676-1.54 1.76-.554 6.647-.001.002c-4.3 11.788.35 25.33 11.588 31.82 12.591 7.269 28.714 2.95 35.984-9.643zm-1.28-.738c-6.87 11.9-22.066 15.971-33.966 9.101C8.98 47.534 4.653 34.231 9.311 22.888l4.297-2.837 1.875-3.247-4.904 3.505q.018-.035.035-.072l.793-1.373a24.7 24.7 0 0 1 5.404-6c7.76-6.191 18.823-7.364 27.948-2.096 11.9 6.87 15.972 22.066 9.101 33.966z"/><path fill="#e30613" d="M6.513 47.136C14.721 61.352 32.92 66.23 47.136 58.021 60.043 50.57 65.252 34.88 59.958 21.414v-.001l-.372-6.362-1.875-3.248.581 6.077q-.133-.242-.27-.482C49.813 3.182 31.613-1.695 17.396 6.513 3.182 14.721-1.695 32.921 6.512 47.136zm1.279-.738C-.017 32.873 4.612 15.6 18.136 7.791s30.799-3.18 38.607 10.345c.08.138.236.416.236.416l-6.163-4.283 2.712 3.569 4.71 3.275.002.002c5.599 12.987.709 28.382-11.841 35.627-13.525 7.809-30.798 3.18-38.607-10.344z"/></svg>