<svg xmlns="http://www.w3.org/2000/svg" viewBox="0 0 64.535 64.535"><path fill="#e30613" d="M56.394 43.01c5.914-13.283-.067-28.865-13.35-34.779C32.86 3.697 21.324 6.15 13.83 13.534a26.3 26.3 0 0 0-5.763 8.503l-.098-4.692-1.347 1.912.143 6.668v.002C3.72 38.1 9.76 51.082 21.615 56.361c13.282 5.913 28.865-.068 34.779-13.35zm-1.349-.6C49.456 54.961 34.77 60.6 22.216 55.01 10.703 49.885 5.01 37.106 8.456 25.34l3.977-3.27 1.526-3.426-4.511 4c.01-.026.016-.052.027-.077l.645-1.448a24.7 24.7 0 0 1 4.747-6.533c7.07-6.968 17.951-9.29 27.576-5.005 12.553 5.589 18.19 20.276 12.602 32.829z"/><path fill="#e30613" d="M5.1 44.363c6.676 14.996 24.267 21.748 39.262 15.071 13.616-6.062 20.437-21.12 16.58-35.066l-.002-.001.296-6.366-1.525-3.426-.058 6.104q-.106-.256-.219-.508C52.758 5.175 35.168-1.577 20.171 5.101 5.175 11.776-1.577 29.366 5.099 44.362zm1.349-.6C.097 29.494 6.505 12.8 20.772 6.447s30.962.057 37.314 14.324c.065.146.191.439.191.439l-5.682-4.904 2.324 3.832 4.343 3.75.001.002c4.21 13.501-2.261 28.3-15.5 34.194-14.267 6.352-30.961-.056-37.313-14.323z"/></svg>