<svg xmlns="http://www.w3.org/2000/svg" viewBox="0 0 64.535 64.535"><path fill="#e30613" d="M57.385 40.43C61.878 26.6 54.3 11.73 40.472 7.235c-10.602-3.445-21.818.2-28.499 8.328a26.3 26.3 0 0 0-4.843 9.058l-.588-4.655-1.14 2.042.84 6.617v.002c-1.756 12.424 5.608 24.704 17.95 28.714 13.827 4.493 28.7-3.084 33.193-16.913zm-1.404-.457c-4.247 13.068-18.264 20.21-31.332 15.964C12.663 52.043 5.664 39.93 7.863 27.867l3.613-3.67 1.159-3.566-4.068 4.45c.008-.027.011-.053.019-.079l.49-1.508a24.7 24.7 0 0 1 4.038-6.993c6.304-7.669 16.882-11.116 26.902-7.86 13.068 4.246 20.21 18.263 15.964 31.331z"/><path fill="#e30613" d="M3.984 41.457c5.073 15.611 21.86 24.165 37.473 19.093C55.63 55.944 63.988 41.68 61.61 27.409v-.002l.959-6.3-1.16-3.566-.694 6.064a31 31 0 0 0-.165-.528C55.477 7.466 38.69-1.088 23.077 3.985 7.465 9.057-1.09 25.845 3.984 41.457zM5.39 41C.563 26.148 8.68 10.214 23.534 5.388S54.32 8.681 59.146 23.534c.05.151.144.456.144.456l-5.138-5.471 1.911 4.054 3.927 4.184v.002c2.777 13.867-5.207 27.909-18.988 32.387C26.149 63.972 10.215 55.853 5.389 41z"/></svg>