<svg xmlns="http://www.w3.org/2000/svg" viewBox="0 0 64.535 64.535"><path fill="#e30613" d="M58.1 37.759c3.024-14.222-6.067-28.22-20.29-31.243-10.903-2.318-21.677 2.479-27.472 11.261a26.3 26.3 0 0 0-3.87 9.515l-1.07-4.569-.921 2.15 1.527 6.493v.002c-.447 12.54 8.16 23.983 20.853 26.68 14.221 3.024 28.22-6.066 31.243-20.289zm-1.444-.307c-2.857 13.44-16.05 22.009-29.491 19.152C14.837 53.984 6.61 42.668 7.536 30.44l3.21-4.026.78-3.668-3.58 4.85q.004-.04.01-.08l.33-1.55a24.7 24.7 0 0 1 3.285-7.378c5.467-8.285 15.627-12.82 25.933-10.63 13.44 2.858 22.009 16.052 19.152 29.492z"/><path fill="#e30613" d="M3.179 38.45c3.413 16.056 19.215 26.318 35.27 22.905 14.58-3.098 24.382-16.41 23.508-30.852V30.5l1.612-6.166-.78-3.668-1.325 5.959q-.052-.271-.108-.542C57.943 10.028 42.14-.234 26.084 3.179S-.235 22.394 3.178 38.449zm1.444-.307C1.376 22.867 11.116 7.87 26.392 4.623s30.273 6.492 33.52 21.768c.033.156.096.469.096.469l-4.538-5.978 1.476 4.232 3.468 4.57v.003c1.312 14.082-8.095 27.212-22.27 30.224C22.87 63.158 7.871 53.42 4.624 38.143z"/></svg>