<svg xmlns="http://www.w3.org/2000/svg" viewBox="0 0 64.535 64.535"><path fill="#e30613" d="M58.533 35.029c1.52-14.46-8.984-27.432-23.444-28.952-11.087-1.165-21.3 4.732-26.145 14.072a26.3 26.3 0 0 0-2.854 9.867l-1.543-4.432-.69 2.234 2.197 6.298v.002c.866 12.518 10.622 22.999 23.528 24.355 14.459 1.52 27.431-8.984 28.95-23.444zm-1.469-.155C55.628 48.54 43.402 58.44 29.737 57.004 17.203 55.687 7.839 45.293 7.48 33.036l2.771-4.34.392-3.729-3.054 5.198c.003-.027 0-.053.003-.08l.166-1.578a24.7 24.7 0 0 1 2.496-7.68c4.571-8.811 14.201-14.383 24.68-13.281C48.6 8.982 58.5 21.208 57.063 34.874z"/><path fill="#e30613" d="M2.692 35.376C4.408 51.7 19.05 63.558 35.376 61.842c14.822-1.558 25.962-13.772 26.603-28.226v-.002l2.248-5.963-.392-3.73-1.94 5.788a31 31 0 0 0-.052-.55C60.127 12.832 45.484.975 29.158 2.691 12.833 4.408.976 19.05 2.691 35.375zm1.468-.155C2.528 19.69 13.782 5.792 29.313 4.16s29.43 9.621 31.062 25.153c.017.159.046.476.046.476l-3.888-6.42 1.026 4.364 2.971 4.908v.002c-.167 14.142-10.896 26.216-25.308 27.731-15.531 1.633-29.428-9.621-31.06-25.153z"/></svg>