<svg xmlns="http://www.w3.org/2000/svg" viewBox="0 0 64.535 64.535"><path fill="#e30613" d="M58.678 32.268c0-14.54-11.802-26.342-26.342-26.342-11.148 0-20.69 6.932-24.531 16.727a26.3 26.3 0 0 0-1.807 10.111L4 28.518l-.453 2.294 2.844 6.034v.002C8.56 49.208 19.359 58.61 32.336 58.61c14.539 0 26.342-11.802 26.342-26.342zm-1.477 0c0 13.741-11.124 24.865-24.865 24.865-12.603 0-23.002-9.358-24.639-21.51L10 31.017v-3.75l-2.494 5.489c0-.027-.006-.053-.006-.08V31.09a24.7 24.7 0 0 1 1.68-7.899C12.805 13.95 21.8 7.402 32.336 7.402c13.74 0 24.865 11.124 24.865 24.865z"/><path fill="#e30613" d="M2.53 32.267c0 16.415 13.322 29.738 29.737 29.738 14.904 0 27.26-10.983 29.408-25.291v-.002l2.86-5.695v-3.75l-2.536 5.553q.007-.277.007-.553c0-16.415-13.323-29.738-29.74-29.738-16.414 0-29.737 13.323-29.737 29.738zm1.476 0c0-15.617 12.645-28.262 28.262-28.262S60.53 16.65 60.53 32.267c0 .16-.004.479-.004.479l-3.196-6.791.564 4.446 2.442 5.192v.002C58.691 49.642 46.76 60.53 32.268 60.53c-15.617 0-28.262-12.645-28.262-28.262z"/></svg>