<svg xmlns="http://www.w3.org/2000/svg" viewBox="0 0 64.535 64.535"><path fill="#e30613" d="M58.533 29.507c-1.52-14.46-14.49-24.964-28.951-23.444C18.495 7.228 9.73 15.12 6.934 25.263a26.3 26.3 0 0 0-.74 10.244l-2.431-4.014-.21 2.33 3.458 5.703v.002c3.45 12.065 15.172 20.287 28.078 18.93 14.46-1.519 24.964-14.49 23.444-28.95zm-1.468.155C58.5 43.327 48.6 55.553 34.935 56.99 22.4 58.307 11.08 50.087 8.182 38.173l1.81-4.821-.393-3.73-1.907 5.72q-.006-.04-.014-.08l-.166-1.577a24.7 24.7 0 0 1 .845-8.03c2.64-9.57 10.9-17.022 21.379-18.123 13.666-1.437 25.892 8.463 27.328 22.13z"/><path fill="#e30613" d="M2.692 29.158C.976 45.484 12.834 60.126 29.16 61.842 43.98 63.4 57.417 53.77 61.049 39.764v-.002l3.44-5.366.391-3.729-3.101 5.257q.034-.273.064-.549C63.559 19.05 51.7 4.408 35.375 2.692 19.05.976 4.407 12.833 2.692 29.158zm1.469.155C5.793 13.78 19.69 2.527 35.22 4.16S62.008 19.69 60.376 35.22c-.017.159-.054.476-.054.476l-2.469-7.088.097 4.48 1.886 5.42v.002c-3.104 13.798-16.11 23.378-30.52 21.863C13.782 58.742 2.528 44.844 4.16 29.313z"/></svg>