<svg xmlns="http://www.w3.org/2000/svg" viewBox="0 0 64.535 64.535"><path fill="#e30613" d="M58.1 26.777C55.079 12.555 41.08 3.464 26.859 6.487 15.953 8.805 8.062 17.57 6.34 27.95a26.3 26.3 0 0 0 .335 10.266l-2.837-3.738.034 2.339 4.036 5.31v.002c4.693 11.638 17.21 18.59 29.903 15.892C52.032 54.998 61.124 41 58.101 26.777zm-1.444.307c2.857 13.44-5.71 26.634-19.152 29.491-12.327 2.62-24.445-4.37-28.572-15.917l1.295-4.983-.78-3.669-1.299 5.887c-.006-.026-.016-.05-.022-.077l-.33-1.551a24.7 24.7 0 0 1 .001-8.075c1.625-9.793 9.062-18.068 19.367-20.258 13.441-2.857 26.635 5.71 29.492 19.152z"/><path fill="#e30613" d="M3.18 26.084C-.235 42.14 10.027 57.942 26.083 61.355c14.579 3.099 28.948-5.075 34.024-18.624v-.002l3.981-4.976.78-3.668-3.634 4.904q.063-.269.12-.54C64.77 22.394 54.508 6.593 38.45 3.18S6.59 10.026 3.179 26.083zm1.443.307C7.87 11.115 22.868 1.376 38.143 4.623s25.016 18.244 21.77 33.52l-.104.467-1.714-7.307-.373 4.467 1.31 5.586v.002c-4.53 13.398-18.465 21.567-32.64 18.554-15.275-3.247-25.015-18.245-21.768-33.52z"/></svg>