<svg xmlns="http://www.w3.org/2000/svg" viewBox="0 0 64.535 64.535"><path fill="#e30613" d="M57.385 24.107C52.892 10.278 38.021 2.7 24.192 7.194 13.59 10.64 6.658 20.18 6.031 30.683a26.3 26.3 0 0 0 1.406 10.175l-3.212-3.421.278 2.322 4.569 4.86v.001c5.883 11.084 19.059 16.69 31.4 12.68C54.3 52.807 61.879 37.935 57.386 24.107zm-1.404.456c4.246 13.069-2.896 27.086-15.964 31.332-11.987 3.894-24.768-1.792-30.08-12.844l.766-5.091-1.158-3.567-.676 5.99q-.016-.036-.03-.074l-.49-1.508a24.7 24.7 0 0 1-.844-8.03c.592-9.91 7.123-18.917 17.143-22.173 13.069-4.246 27.086 2.896 31.332 15.965z"/><path fill="#e30613" d="M3.985 23.077c-5.073 15.612 3.481 32.4 19.093 37.472 14.174 4.606 29.32-2.021 35.784-14.965v-.002l4.48-4.533 1.159-3.566-4.127 4.497q.091-.26.176-.524c5.073-15.611-3.481-32.4-19.094-37.472-15.611-5.073-32.4 3.481-37.472 19.093zm1.404.457C10.215 8.68 26.15.562 41.001 5.388s22.972 20.76 18.146 35.613l-.152.453-.94-7.446-.838 4.403.718 5.693v.002c-5.906 12.851-20.618 19.518-34.4 15.04C8.682 54.32.564 38.386 5.39 23.534z"/></svg>