<svg xmlns="http://www.w3.org/2000/svg" viewBox="0 0 64.535 64.535"><path fill="#e30613" d="M56.395 21.526C50.48 8.243 34.899 2.262 21.615 8.176 11.433 12.71 5.536 22.923 6.01 33.434a26.3 26.3 0 0 0 2.462 9.972L4.92 40.34l.52 2.28 5.051 4.356v.001c7.01 10.408 20.7 14.606 32.554 9.328 13.282-5.913 19.265-21.496 13.35-34.779zm-1.35.6c5.59 12.554-.048 27.24-12.601 32.83-11.514 5.125-24.82.806-31.258-9.63l.23-5.143-1.525-3.426-.046 6.028q-.018-.035-.038-.07l-.645-1.45a24.7 24.7 0 0 1-1.678-7.898C7.037 23.45 12.591 13.81 22.216 9.524c12.553-5.589 27.24.05 32.829 12.602z"/><path fill="#e30613" d="M5.1 20.171c-6.676 14.996.076 32.586 15.072 39.263 13.615 6.062 29.37 1.054 37.152-11.143v-.002l4.93-4.04 1.525-3.426-4.575 4.042q.118-.25.23-.503C66.112 29.367 59.36 11.776 44.364 5.1S11.777 5.175 5.1 20.171zm1.35.6C12.8 6.506 29.495.097 43.762 6.45S64.44 29.495 58.087 43.762c-.065.146-.199.436-.199.436l-.157-7.504-1.293 4.292.119 5.736v.002C49.34 58.888 34.01 63.98 20.772 58.086 6.506 51.734.098 35.04 6.45 20.772z"/></svg>