<svg xmlns="http://www.w3.org/2000/svg" viewBox="0 0 64.535 64.535"><path fill="#e30613" d="M55.14 19.063C47.87 6.47 31.748 2.15 19.156 9.42 9.5 14.995 4.705 25.769 6.275 36.172a26.3 26.3 0 0 0 3.49 9.66l-3.853-2.678.755 2.214 5.48 3.803v.002c8.06 9.618 22.112 12.362 33.35 5.874 12.592-7.27 16.913-23.392 9.643-35.984zm-1.28.738c6.871 11.9 2.8 27.096-9.1 33.966-10.915 6.302-24.6 3.397-32.093-6.308l-.309-5.14-1.875-3.248.584 6q-.022-.033-.045-.066l-.793-1.374a24.7 24.7 0 0 1-2.494-7.68C6.253 26.135 10.769 15.968 19.894 10.7c11.9-6.87 27.096-2.8 33.966 9.1z"/><path fill="#e30613" d="M6.514 17.398C-1.694 31.614 3.183 49.813 17.398 58.02c12.908 7.452 29.1 4.118 38.114-7.199v-.002l5.325-3.502 1.875-3.248-4.972 3.541q.143-.235.282-.475c8.207-14.216 3.33-32.415-10.886-40.623S14.721 3.182 6.513 17.397zm1.278.738C15.601 4.611 32.874-.017 46.4 7.792s18.153 25.081 10.345 38.606c-.08.138-.243.413-.243.413l.628-7.48-1.735 4.133-.481 5.718-.001.002c-8.448 11.342-24.225 14.805-36.775 7.56C4.613 48.933-.016 31.66 7.793 18.136z"/></svg>