<svg xmlns="http://www.w3.org/2000/svg" viewBox="0 0 64.535 64.535"><path fill="#e30613" d="M53.634 16.744C45.088 4.981 28.603 2.37 16.84 10.917 7.82 17.469 4.176 28.686 6.825 38.868a26.3 26.3 0 0 0 4.482 9.242l-4.112-2.26.982 2.122 5.847 3.21.001.002c9.02 8.723 23.283 9.983 33.781 2.355 11.763-8.546 14.375-25.031 5.828-36.794zm-1.194.868c8.076 11.117 5.615 26.655-5.501 34.732-10.196 7.408-24.11 5.95-32.577-2.92l-.844-5.08-2.204-3.033 1.208 5.906q-.027-.03-.052-.061l-.932-1.283a24.7 24.7 0 0 1-3.284-7.377c-2.499-9.608.93-20.192 9.453-26.385 11.117-8.076 26.655-5.616 34.732 5.501z"/><path fill="#e30613" d="M8.209 14.787c-9.649 13.28-6.701 31.89 6.579 41.538 12.058 8.76 28.51 7.138 38.657-3.175l.001-.001 5.661-2.927 2.204-3.034-5.314 3.002q.166-.22.33-.443c9.648-13.28 6.7-31.89-6.58-41.54-13.28-9.648-31.89-6.7-41.538 6.58zm1.195.868C18.583 3.021 36.246.223 48.88 9.403s15.432 26.842 6.252 39.476c-.093.13-.284.385-.284.385l1.406-7.372-2.157 3.928-1.076 5.636-.001.002c-9.588 10.397-25.64 12.192-37.364 3.674C3.022 45.952.225 28.29 9.404 15.656z"/></svg>