<svg xmlns="http://www.w3.org/2000/svg" viewBox="0 0 64.535 64.535"><path fill="#e30613" d="M51.894 14.596c-9.729-10.805-26.396-11.679-37.202-1.95-8.284 7.46-10.736 18.996-7.037 28.845a26.3 26.3 0 0 0 5.423 8.723l-4.326-1.818 1.198 2.008 6.151 2.581.001.002c9.883 7.732 24.2 7.495 33.843-1.189 10.804-9.728 11.679-26.396 1.95-37.202zm-1.097.988c9.195 10.212 8.371 25.922-1.84 35.116-9.366 8.433-23.356 8.437-32.704.502l-1.37-4.963-2.51-2.787 1.82 5.747q-.03-.028-.058-.055l-1.062-1.179a24.7 24.7 0 0 1-4.036-6.993c-3.49-9.294-1.187-20.178 6.643-27.228 10.212-9.195 25.922-8.372 35.116 1.84z"/><path fill="#e30613" d="M10.168 12.368C-.816 24.567.17 43.383 12.368 54.367c11.077 9.972 27.608 10.078 38.778.882l.002-.001 5.935-2.32 2.51-2.786-5.6 2.43q.188-.202.375-.406c10.983-12.2 9.997-31.015-2.202-42C39.967-.816 21.15.17 10.168 12.369zm1.097.988C21.715 1.751 39.573.815 51.18 11.265s12.542 28.308 2.092 39.913c-.107.119-.323.353-.323.353l2.169-7.185-2.556 3.682-1.66 5.493v.001c-10.623 9.338-26.775 9.445-37.544-.251C1.752 42.82.816 24.963 11.266 13.357z"/></svg>