<svg xmlns="http://www.w3.org/2000/svg" viewBox="0 0 64.535 64.535"><path fill="#e30613" d="M49.94 12.641c-10.806-9.729-27.473-8.855-37.202 1.95-7.46 8.284-8.692 20.013-3.984 29.423a26.3 26.3 0 0 0 6.305 8.108l-4.492-1.356 1.401 1.871 6.387 1.925h.002c10.636 6.658 24.85 4.925 33.533-4.718 9.728-10.805 8.855-27.473-1.95-37.202zm-.988 1.098c10.211 9.194 11.035 24.904 1.84 35.116-8.433 9.366-22.346 10.832-32.472 3.917L16.44 47.98l-2.787-2.509 2.41 5.526q-.033-.025-.064-.05l-1.179-1.06a24.7 24.7 0 0 1-4.745-6.534c-4.442-8.878-3.29-19.943 3.76-27.773C23.03 5.367 38.74 4.544 48.952 13.739z"/><path fill="#e30613" d="M12.369 10.167C.17 21.151-.816 39.967 10.168 52.165c9.973 11.076 26.402 12.91 38.473 4.932l.001-.001 6.146-1.686 2.787-2.51-5.823 1.832q.208-.18.415-.365c12.198-10.984 13.185-29.8 2.2-42C43.383.17 24.567-.816 12.37 10.168zm.988 1.098C24.963.815 42.821 1.75 53.271 13.356s9.514 29.464-2.092 39.914c-.119.107-.358.317-.358.317l2.908-6.919-2.927 3.395-2.224 5.289-.002.001c-11.54 8.177-27.614 6.595-37.31-4.174-10.45-11.606-9.514-29.464 2.091-39.914z"/></svg>