<svg xmlns="http://www.w3.org/2000/svg" viewBox="0 0 64.535 64.535"><path fill="#e30613" d="M47.791 10.901C36.028 2.355 19.543 4.966 10.997 16.73c-6.553 9.02-6.553 20.813-.887 29.678a26.3 26.3 0 0 0 7.119 7.405l-4.61-.88 1.59 1.716 6.553 1.246h.001c11.274 5.51 25.229 2.3 32.856-8.198 8.546-11.762 5.936-28.248-5.827-36.794zm-.867 1.195c11.116 8.077 13.577 23.615 5.5 34.732-7.407 10.196-21.09 13.108-31.884 7.29l-2.372-4.57-3.034-2.204 2.974 5.243q-.034-.021-.068-.042l-1.283-.932a24.7 24.7 0 0 1-5.403-6.002c-5.346-8.365-5.356-19.49.837-28.014 8.077-11.117 23.615-13.578 34.732-5.5z"/><path fill="#e30613" d="M14.788 8.208C1.508 17.857-1.439 36.466 8.21 49.746c8.76 12.058 24.909 15.599 37.747 8.926h.001l6.288-1.035 3.034-2.204-5.982 1.212q.227-.156.45-.32c13.28-9.648 16.228-28.257 6.58-41.538-9.65-13.28-28.259-16.228-41.539-6.58zm.868 1.195C28.29.223 45.953 3.02 55.132 15.655s6.382 30.297-6.252 39.477c-.13.094-.39.278-.39.278l3.616-6.577-3.266 3.07-2.765 5.027-.001.002c-12.331 6.925-28.153 3.671-36.67-8.052-9.18-12.634-6.382-30.297 6.252-39.476z"/></svg>