<svg xmlns="http://www.w3.org/2000/svg" viewBox="0 0 64.535 64.535"><path fill="#e30613" d="M43.01 8.14c-13.283-5.913-28.865.068-34.779 13.351-4.534 10.184-2.082 21.72 5.303 29.214a26.3 26.3 0 0 0 8.503 5.763l-4.692.098 1.912 1.347 6.668-.143h.002c12.173 3.045 25.155-2.995 30.434-14.85 5.913-13.282-.068-28.865-13.35-34.779zm-.6 1.35C54.961 15.079 60.6 29.766 55.01 42.319c-5.126 11.513-17.905 17.207-29.672 13.76l-3.27-3.977-3.426-1.526 4 4.511c-.026-.01-.052-.016-.077-.027l-1.448-.645a24.7 24.7 0 0 1-6.533-4.747c-6.968-7.07-9.29-17.951-5.005-27.576C15.169 9.539 29.856 3.902 42.409 9.49z"/><path fill="#e30613" d="M20.172 5.1C5.176 11.776-1.576 29.367 5.101 44.362c6.062 13.616 21.12 20.437 35.066 16.58l.001-.002 6.366.296 3.426-1.525-6.104-.058q.256-.106.508-.219c14.996-6.676 21.748-24.266 15.07-39.263C52.759 5.175 35.169-1.577 20.173 5.099zm.6 1.349C35.04.097 51.736 6.505 58.088 20.772s-.057 30.962-14.324 37.314c-.146.065-.439.191-.439.191l4.904-5.682-3.832 2.324-3.75 4.343-.002.001c-13.501 4.21-28.3-2.261-34.194-15.5C.098 29.496 6.506 12.802 20.773 6.45z"/></svg>