<svg xmlns="http://www.w3.org/2000/svg" viewBox="0 0 64.535 64.535"><path fill="#e30613" d="M40.43 7.15C26.6 2.657 11.73 10.234 7.235 24.063c-3.445 10.602.2 21.818 8.328 28.499a26.3 26.3 0 0 0 9.058 4.843l-4.655.588 2.042 1.14 6.617-.84h.002c12.424 1.756 24.704-5.608 28.714-17.95 4.493-13.827-3.084-28.7-16.913-33.193zm-.457 1.404c13.068 4.247 20.21 18.264 15.964 31.332-3.894 11.986-16.008 18.985-28.07 16.786l-3.67-3.613-3.566-1.159 4.45 4.068c-.027-.008-.053-.011-.079-.019l-1.508-.49a24.7 24.7 0 0 1-6.993-4.038c-7.669-6.304-11.116-16.882-7.86-26.902C12.886 11.451 26.903 4.31 39.971 8.555z"/><path fill="#e30613" d="M23.078 3.984C7.467 9.057-1.087 25.844 3.985 41.457 8.591 55.63 22.855 63.988 37.126 61.61h.002l6.3.959 3.566-1.16-6.064-.694q.264-.08.528-.165c15.611-5.073 24.165-21.86 19.092-37.473C55.478 7.465 38.69-1.09 23.078 3.984zm.457 1.405C38.387.563 54.32 8.68 59.147 23.534S55.854 54.32 41 59.146c-.151.05-.456.144-.456.144l5.471-5.138-4.054 1.911-4.184 3.927h-.002C23.91 62.768 9.867 54.784 5.39 41.003.563 26.149 8.682 10.215 23.535 5.389z"/></svg>