<svg xmlns="http://www.w3.org/2000/svg" viewBox="0 0 64.535 64.535"><path fill="#e30613" d="M37.759 6.435C23.537 3.41 9.539 12.502 6.516 26.725 4.198 37.627 8.995 48.401 17.777 54.196a26.3 26.3 0 0 0 9.515 3.87l-4.569 1.07 2.15.921 6.493-1.527h.002c12.54.447 23.983-8.16 26.68-20.853 3.024-14.221-6.066-28.22-20.289-31.243zm-.307 1.444c13.44 2.857 22.009 16.05 19.152 29.491C53.984 49.698 42.668 57.924 30.44 57l-4.026-3.21-3.668-.78 4.85 3.58q-.04-.004-.08-.01l-1.55-.33a24.7 24.7 0 0 1-7.378-3.285C10.304 47.497 5.77 37.337 7.96 27.03 10.818 13.591 24.012 5.022 37.452 7.88z"/><path fill="#e30613" d="M26.085 3.179C10.029 6.592-.233 22.394 3.18 38.449c3.098 14.58 16.41 24.382 30.852 23.508h.002l6.166 1.612 3.668-.78-5.959-1.325q.271-.052.542-.108C54.507 57.943 64.77 42.14 61.356 26.084S42.141-.235 26.086 3.178zm.307 1.444c15.276-3.247 30.273 6.493 33.52 21.769s-6.492 30.273-21.768 33.52c-.156.033-.469.096-.469.096l5.978-4.538-4.232 1.476-4.57 3.468h-.003C20.766 61.727 7.636 52.32 4.624 38.145 1.377 22.87 11.116 7.871 26.392 4.624z"/></svg>