<svg xmlns="http://www.w3.org/2000/svg" viewBox="0 0 64.535 64.535"><path fill="#e30613" d="M35.029 6.002c-14.46-1.52-27.432 8.984-28.952 23.444-1.165 11.087 4.732 21.3 14.072 26.145a26.3 26.3 0 0 0 9.867 2.854l-4.432 1.543 2.234.69 6.298-2.197h.002c12.518-.866 22.999-10.622 24.355-23.528 1.52-14.459-8.984-27.431-23.444-28.95zm-.155 1.469C48.54 8.907 58.44 21.133 57.004 34.798c-1.317 12.534-11.711 21.898-23.968 22.256l-4.34-2.771-3.729-.392 5.198 3.054c-.027-.003-.053 0-.08-.003l-1.578-.166a24.7 24.7 0 0 1-7.68-2.496C12.017 49.71 6.445 40.08 7.547 29.6 8.982 15.936 21.208 6.036 34.874 7.472z"/><path fill="#e30613" d="M29.16 2.692C12.833 4.408.976 19.05 2.692 35.376 4.25 50.198 16.465 61.338 30.919 61.979h.002l5.963 2.248 3.73-.392-5.788-1.94q.275-.024.55-.052c16.326-1.716 28.183-16.359 26.467-32.685C60.127 12.833 45.485.976 29.16 2.691zm.154 1.468c15.531-1.632 29.429 9.622 31.061 25.153s-9.621 29.43-25.153 31.062c-.159.017-.476.046-.476.046l6.42-3.888-4.364 1.026-4.908 2.971h-.002C17.75 60.363 5.676 49.634 4.161 35.222 2.528 19.691 13.782 5.794 29.314 4.162z"/></svg>