<svg xmlns="http://www.w3.org/2000/svg" viewBox="0 0 64.535 64.535"><path fill="#e30613" d="M32.268 5.857C17.728 5.857 5.926 17.66 5.926 32.2c0 11.148 6.932 20.69 16.727 24.531a26.3 26.3 0 0 0 10.111 1.807l-4.246 1.998 2.294.453 6.034-2.844h.002C49.208 55.974 58.61 45.176 58.61 32.2c0-14.539-11.802-26.342-26.342-26.342zm0 1.477c13.741 0 24.865 11.124 24.865 24.865 0 12.603-9.358 23.002-21.51 24.639l-4.606-2.303h-3.75l5.489 2.494c-.027 0-.053.006-.08.006H31.09a24.7 24.7 0 0 1-7.899-1.68C13.95 51.73 7.402 42.735 7.402 32.2c0-13.74 11.124-24.865 24.865-24.865z"/><path fill="#e30613" d="M32.268 2.53C15.853 2.53 2.53 15.851 2.53 32.266c0 14.904 10.983 27.26 25.291 29.408h.002l5.695 2.86h3.75l-5.552-2.536q.275.007.552.007c16.415 0 29.738-13.323 29.738-29.74 0-16.414-13.323-29.737-29.738-29.737zm0 1.476c15.617 0 28.262 12.645 28.262 28.262S47.885 60.53 32.268 60.53c-.16 0-.479-.004-.479-.004l6.791-3.196-4.446.564-5.192 2.442h-.002C14.893 58.691 4.006 46.76 4.006 32.268c0-15.617 12.645-28.262 28.262-28.262z"/></svg>