<svg xmlns="http://www.w3.org/2000/svg" viewBox="0 0 64.535 64.535"><path fill="#e30613" d="M29.507 6.002c-14.46 1.52-24.964 14.49-23.444 28.951 1.165 11.087 9.057 19.851 19.2 22.648a26.3 26.3 0 0 0 10.244.74l-4.014 2.431 2.33.21 5.703-3.458h.002c12.065-3.45 20.287-15.172 18.93-28.078-1.519-14.46-14.49-24.964-28.95-23.444zm.155 1.468C43.327 6.034 55.553 15.934 56.99 29.6c1.317 12.534-6.903 23.854-18.817 26.753l-4.821-1.81-3.73.393 5.72 1.907q-.04.006-.08.014l-1.577.166a24.7 24.7 0 0 1-8.03-.845c-9.57-2.64-17.022-10.9-18.123-21.379-1.437-13.666 8.463-25.892 22.13-27.328z"/><path fill="#e30613" d="M35.377 2.692C19.05.976 4.409 12.834 2.693 29.16 1.135 43.98 10.766 57.417 24.77 61.049h.002l5.366 3.44 3.729.391-5.257-3.101q.273.033.549.064C45.485 63.559 60.127 51.7 61.843 35.375 63.56 19.05 51.702 4.407 35.377 2.692zm-.155 1.469c15.532 1.632 26.786 15.53 25.153 31.06s-15.53 26.786-31.061 25.154l-.476-.054 7.088-2.469-4.48.097-5.42 1.886h-.002C12.226 56.73 2.646 43.725 4.161 29.315 5.793 13.782 19.69 2.528 35.222 4.16z"/></svg>