<svg xmlns="http://www.w3.org/2000/svg" viewBox="0 0 64.535 64.535"><path fill="#e30613" d="M26.777 6.434C12.555 9.457 3.464 23.455 6.487 37.677 8.805 48.582 17.57 56.473 27.95 58.195a26.3 26.3 0 0 0 10.266-.335l-3.738 2.837 2.339-.034 5.31-4.036h.002c11.638-4.693 18.59-17.21 15.892-29.903C54.998 12.503 41 3.41 26.777 6.434zm.307 1.445c13.44-2.857 26.634 5.71 29.491 19.152 2.62 12.327-4.37 24.445-15.917 28.572l-4.983-1.295-3.669.78 5.887 1.299q-.038.011-.077.022l-1.551.33a24.7 24.7 0 0 1-8.075-.001c-9.793-1.625-18.068-9.062-20.258-19.367-2.857-13.441 5.71-26.635 19.152-29.492z"/><path fill="#e30613" d="M38.451 3.18C22.395-.235 6.593 10.027 3.18 26.083.08 40.663 8.255 55.032 21.804 60.108h.002l4.976 3.981 3.668.78-4.904-3.634q.269.063.54.12c16.056 3.414 31.857-6.848 35.27-22.905S54.509 6.59 38.452 3.179zm-.307 1.443C53.42 7.87 63.159 22.868 59.912 38.143s-18.244 25.016-33.52 21.77l-.467-.104 7.307-1.714-4.467-.373-5.586 1.31h-.002C9.779 54.501 1.61 40.566 4.623 26.391 7.87 11.117 22.868 1.377 38.143 4.624z"/></svg>