<svg xmlns="http://www.w3.org/2000/svg" viewBox="0 0 64.535 64.535"><path fill="#e30613" d="M24.107 7.15C10.278 11.643 2.7 26.514 7.194 40.343 10.64 50.945 20.18 57.877 30.683 58.504a26.3 26.3 0 0 0 10.175-1.406l-3.421 3.212 2.322-.278 4.86-4.569h.001c11.084-5.883 16.69-19.059 12.68-31.4C52.807 10.234 37.935 2.656 24.107 7.15zm.456 1.404C37.632 4.308 51.65 11.45 55.895 24.518c3.894 11.987-1.792 24.768-12.844 30.08l-5.091-.766-3.567 1.158 5.99.676q-.036.017-.074.03l-1.508.49a24.7 24.7 0 0 1-8.03.844c-9.91-.592-18.917-7.123-22.173-17.143C4.352 26.818 11.494 12.8 24.563 8.555z"/><path fill="#e30613" d="M41.458 3.985C25.846-1.088 9.058 7.466 3.986 23.078-.62 37.252 6.007 52.398 18.95 58.862h.002l4.533 4.48 3.566 1.159-4.497-4.127q.26.091.524.176c15.611 5.073 32.4-3.481 37.472-19.094 5.073-15.611-3.481-32.4-19.093-37.472zM41 5.389c14.853 4.826 22.972 20.76 18.146 35.612s-20.76 22.972-35.613 18.146l-.453-.152 7.446-.94-4.403-.838-5.693.718h-.002C7.578 52.028.911 37.316 5.389 23.534 10.215 8.682 26.149.564 41 5.39z"/></svg>