<svg xmlns="http://www.w3.org/2000/svg" viewBox="0 0 64.535 64.535"><path fill="#e30613" d="M21.526 8.14C8.243 14.054 2.262 29.636 8.176 42.92 12.71 53.102 22.923 59 33.434 58.525a26.3 26.3 0 0 0 9.972-2.462l-3.066 3.552 2.28-.52 4.356-5.051h.001c10.408-7.01 14.606-20.7 9.328-32.554C50.392 8.209 34.81 2.226 21.526 8.14zm.6 1.35c12.554-5.59 27.24.048 32.83 12.601 5.125 11.514.806 24.82-9.63 31.258l-5.143-.23-3.426 1.525 6.028.046q-.035.018-.07.038l-1.45.645a24.7 24.7 0 0 1-7.898 1.678c-9.917.447-19.557-5.107-23.843-14.732-5.589-12.553.05-27.24 12.602-32.829z"/><path fill="#e30613" d="M44.364 5.1C29.368-1.576 11.778 5.176 5.1 20.172-.96 33.787 4.047 49.542 16.244 57.324h.002l4.04 4.93 3.426 1.525-4.042-4.575q.25.118.503.23c14.995 6.677 32.586-.075 39.263-15.071S59.36 11.777 44.364 5.1zm-.6 1.35C58.03 12.8 64.438 29.495 58.085 43.762S35.04 64.44 20.773 58.087l-.436-.199 7.504-.157-4.292-1.293-5.736.119h-.002C5.647 49.34.555 34.01 6.449 20.772 12.8 6.506 29.496.098 43.763 6.45z"/></svg>