<svg xmlns="http://www.w3.org/2000/svg" viewBox="0 0 64.535 64.535"><path fill="#e30613" d="M19.063 9.395C6.47 16.665 2.15 32.787 9.42 45.38c5.574 9.655 16.348 14.451 26.751 12.881a26.3 26.3 0 0 0 9.66-3.49l-2.678 3.853 2.214-.755 3.803-5.48h.002c9.618-8.06 12.362-22.112 5.874-33.35-7.27-12.592-23.392-16.913-35.984-9.643zm.738 1.28c11.9-6.871 27.096-2.8 33.966 9.1 6.302 10.915 3.397 24.6-6.308 32.093l-5.14.309-3.248 1.875 6-.584q-.033.022-.066.045l-1.374.793a24.7 24.7 0 0 1-7.68 2.494c-9.816 1.482-19.983-3.034-25.251-12.159-6.87-11.9-2.8-27.096 9.1-33.966z"/><path fill="#e30613" d="M47.137 6.514C32.921-1.694 14.722 3.183 6.514 17.398c-7.452 12.908-4.118 29.1 7.199 38.114h.002l3.502 5.325 3.248 1.875-3.541-4.972q.235.143.475.282c14.216 8.207 32.415 3.33 40.623-10.886s3.331-32.415-10.884-40.623zM46.4 7.792C59.924 15.601 64.552 32.874 56.743 46.4S31.662 64.552 18.137 56.744c-.138-.08-.413-.243-.413-.243l7.48.628-4.133-1.735-5.718-.481-.002-.001C4.01 46.464.546 30.687 7.791 18.137 15.602 4.613 32.875-.016 46.399 7.793z"/></svg>