<svg xmlns="http://www.w3.org/2000/svg" viewBox="0 0 64.535 64.535"><path fill="#e30613" d="M16.744 10.9C4.981 19.448 2.37 35.933 10.917 47.696c6.552 9.02 17.769 12.664 27.951 10.015a26.3 26.3 0 0 0 9.242-4.482l-2.26 4.112 2.122-.982 3.21-5.847.002-.001c8.723-9.02 9.983-23.283 2.355-33.781C44.993 4.966 28.508 2.354 16.745 10.9zm.868 1.195C28.73 4.02 44.267 6.48 52.344 17.596c7.408 10.196 5.95 24.11-2.92 32.577l-5.08.844-3.033 2.204 5.906-1.208q-.03.027-.061.052l-1.283.932a24.7 24.7 0 0 1-7.377 3.284c-9.608 2.499-20.192-.93-26.385-9.453-8.076-11.117-5.616-26.655 5.501-34.732z"/><path fill="#e30613" d="M49.748 8.209C36.468-1.44 17.858 1.508 8.21 14.788c-8.76 12.058-7.138 28.51 3.175 38.657l.001.001 2.927 5.661 3.034 2.204-3.002-5.314q.22.166.443.33c13.28 9.648 31.89 6.7 41.54-6.58 9.648-13.28 6.7-31.89-6.58-41.538zm-.868 1.195c12.634 9.179 15.432 26.842 6.252 39.476S28.29 64.312 15.656 55.132c-.13-.093-.385-.284-.385-.284l7.372 1.406-3.928-2.157-5.636-1.076-.002-.001C2.68 43.432.885 27.38 9.403 15.656 18.583 3.022 36.245.225 48.879 9.404z"/></svg>