<svg xmlns="http://www.w3.org/2000/svg" viewBox="0 0 64.535 64.535"><path fill="#e30613" d="M14.596 12.64c-10.805 9.73-11.679 26.397-1.95 37.203 7.46 8.284 18.996 10.736 28.845 7.037a26.3 26.3 0 0 0 8.723-5.423l-1.818 4.326 2.008-1.198 2.581-6.151.002-.001c7.732-9.883 7.495-24.2-1.189-33.843C42.07 3.786 25.402 2.911 14.596 12.64zm.988 1.098c10.212-9.195 25.922-8.371 35.116 1.84 8.433 9.366 8.437 23.356.502 32.704l-4.963 1.37-2.787 2.51 5.747-1.82q-.028.03-.055.058l-1.179 1.062a24.7 24.7 0 0 1-6.993 4.036c-9.294 3.49-20.178 1.187-27.228-6.643-9.195-10.212-8.372-25.922 1.84-35.116z"/><path fill="#e30613" d="M52.167 10.168C39.968-.816 21.152.17 10.168 12.368.196 23.446.09 39.977 9.286 51.147l.001.002 2.32 5.935 2.786 2.51-2.43-5.6q.201.188.406.375c12.2 10.983 31.015 9.997 42-2.202 10.983-12.199 9.997-31.015-2.202-41.998zm-.988 1.097C62.784 21.715 63.72 39.573 53.27 51.18s-28.308 12.542-39.913 2.092c-.119-.107-.353-.323-.353-.323l7.185 2.169-3.682-2.556-5.493-1.66h-.001c-9.338-10.623-9.445-26.775.251-37.544C21.714 1.752 39.572.816 51.178 11.266z"/></svg>