<svg xmlns="http://www.w3.org/2000/svg" viewBox="0 0 64.535 64.535"><path fill="#e30613" d="M12.641 14.595c-9.729 10.806-8.855 27.473 1.95 37.202 8.284 7.46 20.013 8.692 29.423 3.984a26.3 26.3 0 0 0 8.108-6.305l-1.356 4.492 1.871-1.401 1.925-6.387v-.002c6.658-10.636 4.925-24.85-4.718-33.533-10.805-9.728-27.473-8.855-37.202 1.95zm1.098.988c9.194-10.211 24.904-11.035 35.116-1.84 9.366 8.433 10.832 22.346 3.917 32.472l-4.793 1.881-2.509 2.787 5.526-2.41c-.018.021-.032.044-.05.064l-1.06 1.179a24.7 24.7 0 0 1-6.534 4.745c-8.878 4.442-19.943 3.29-27.773-3.76-10.212-9.195-11.035-24.905-1.84-35.117z"/><path fill="#e30613" d="M54.368 12.369C43.384.17 24.568-.816 12.37 10.168 1.294 20.141-.54 36.57 7.438 48.641l.001.001 1.686 6.146 2.51 2.787-1.832-5.823q.18.208.365.415c10.984 12.198 29.8 13.185 42 2.2 12.198-10.984 13.184-29.8 2.2-41.998zm-1.098.988c10.45 11.606 9.514 29.464-2.091 39.914s-29.464 9.514-39.914-2.092c-.107-.119-.317-.358-.317-.358l6.919 2.908-3.395-2.927-5.289-2.224-.001-.002c-8.177-11.54-6.595-27.614 4.174-37.31C24.962.816 42.82 1.752 53.27 13.357z"/></svg>