<svg xmlns="http://www.w3.org/2000/svg" viewBox="0 0 64.535 64.535"><path fill="#e30613" d="M10.901 16.744C2.355 28.507 4.966 44.992 16.73 53.538c9.02 6.553 20.813 6.553 29.678.887a26.3 26.3 0 0 0 7.405-7.119l-.88 4.61 1.716-1.59 1.246-6.553v-.001c5.51-11.274 2.3-25.229-8.198-32.856C35.934 2.37 19.448 4.98 10.902 16.743zm1.195.867c8.077-11.116 23.615-13.577 34.732-5.5 10.196 7.407 13.108 21.09 7.29 31.884l-4.57 2.372-2.204 3.034 5.243-2.974q-.021.034-.042.068l-.932 1.283a24.7 24.7 0 0 1-6.002 5.403c-8.365 5.346-19.49 5.356-28.014-.837-11.117-8.077-13.578-23.615-5.5-34.732z"/><path fill="#e30613" d="M56.327 14.788C46.678 1.508 28.069-1.439 14.789 8.21 2.73 16.97-.81 33.118 5.863 45.956v.001l1.035 6.288 2.204 3.034-1.212-5.982q.156.227.32.45c9.648 13.28 28.257 16.228 41.538 6.58 13.28-9.65 16.228-28.259 6.58-41.539zm-1.195.868c9.18 12.634 6.382 30.297-6.252 39.476S18.583 61.514 9.403 48.88c-.094-.13-.278-.39-.278-.39l6.577 3.616-3.07-3.266-5.027-2.765-.002-.001C.678 33.743 3.932 17.92 15.655 9.404c12.634-9.18 30.297-6.382 39.476 6.252z"/></svg>