<svg xmlns="http://www.w3.org/2000/svg" viewBox="0 0 64.535 64.535"><path fill="#e30613" d="M9.396 19.062c-7.27 12.592-2.95 28.714 9.642 35.984 9.654 5.574 21.383 4.34 29.608-2.22a26.3 26.3 0 0 0 6.62-7.854l-.393 4.676 1.54-1.76.554-6.647.001-.002c4.3-11.788-.35-25.33-11.588-31.82C32.789 2.15 16.666 6.47 9.396 19.063zm1.279.738C17.545 7.9 32.74 3.83 44.64 10.7c10.914 6.302 15.241 19.605 10.583 30.948l-4.297 2.837-1.875 3.247 4.904-3.505c-.013.023-.022.048-.035.072l-.793 1.373a24.7 24.7 0 0 1-5.404 6c-7.76 6.191-18.823 7.364-27.948 2.096-11.9-6.87-15.972-22.066-9.101-33.966z"/><path fill="#e30613" d="M58.022 17.399C49.814 3.183 31.615-1.694 17.399 6.514 4.492 13.966-.717 29.655 4.577 43.12v.001l.372 6.362 1.875 3.248-.581-6.077q.134.242.27.482c8.208 14.216 26.408 19.093 40.625 10.885 14.215-8.208 19.092-26.408 10.885-40.623zm-1.279.738c7.809 13.525 3.18 30.798-10.344 38.607S15.6 59.924 7.792 46.399c-.08-.138-.236-.416-.236-.416l6.163 4.283-2.712-3.569-4.71-3.275-.002-.002C.696 30.433 5.586 15.038 18.136 7.793c13.525-7.809 30.798-3.18 38.607 10.344z"/></svg>