<svg xmlns="http://www.w3.org/2000/svg" viewBox="0 0 64.535 64.535"><path fill="#e30613" d="M8.14 21.525c-5.913 13.283.068 28.865 13.351 34.779 10.184 4.534 21.72 2.082 29.214-5.303a26.3 26.3 0 0 0 5.763-8.503l.098 4.692 1.347-1.912-.143-6.668v-.002c3.045-12.173-2.995-25.155-14.85-30.434-13.282-5.913-28.865.068-34.779 13.35zm1.35.6C15.079 9.574 29.766 3.936 42.319 9.525c11.513 5.126 17.207 17.905 13.76 29.672l-3.977 3.27-1.526 3.426 4.511-4c-.01.026-.016.052-.027.077l-.645 1.448a24.7 24.7 0 0 1-4.747 6.533c-7.07 6.968-17.951 9.29-27.576 5.005C9.539 49.366 3.902 34.68 9.49 22.126z"/><path fill="#e30613" d="M59.435 20.172C52.76 5.176 35.168-1.576 20.173 5.101 6.557 11.163-.264 26.22 3.593 40.167l.002.001-.296 6.366 1.525 3.426.058-6.104q.107.256.219.508c6.676 14.996 24.266 21.748 39.263 15.07 14.996-6.676 21.748-24.266 15.072-39.262zm-1.349.6c6.352 14.268-.056 30.963-14.323 37.315S12.8 58.03 6.449 43.763c-.065-.146-.191-.439-.191-.439l5.682 4.904-2.324-3.832-4.343-3.75-.001-.002c-4.21-13.501 2.261-28.3 15.5-34.194 14.267-6.352 30.961.056 37.313 14.323z"/></svg>