<svg xmlns="http://www.w3.org/2000/svg" viewBox="0 0 64.535 64.535"><path fill="#e30613" d="M7.15 24.106c-4.493 13.828 3.084 28.7 16.913 33.193 10.602 3.445 21.818-.2 28.499-8.328a26.3 26.3 0 0 0 4.843-9.058l.588 4.655 1.14-2.042-.84-6.617v-.002c1.756-12.424-5.608-24.704-17.95-28.714C26.516 2.7 11.643 10.277 7.15 24.106zm1.404.456c4.247-13.068 18.264-20.21 31.332-15.964 11.986 3.894 18.985 16.008 16.786 28.07l-3.613 3.67-1.159 3.566 4.068-4.45c-.008.027-.011.053-.019.079l-.49 1.508a24.7 24.7 0 0 1-4.038 6.993c-6.304 7.669-16.882 11.116-26.902 7.86C11.451 51.649 4.31 37.632 8.555 24.564z"/><path fill="#e30613" d="M60.55 23.078C55.479 7.467 38.69-1.087 23.079 3.985 8.904 8.591.547 22.855 2.925 37.126v.002l-.959 6.3 1.16 3.566.694-6.064q.08.264.165.528c5.073 15.611 21.86 24.165 37.473 19.092 15.612-5.072 24.166-21.86 19.093-37.472zm-1.404.457c4.826 14.852-3.292 30.786-18.145 35.612S10.215 55.854 5.389 41c-.05-.151-.144-.456-.144-.456l5.138 5.471-1.911-4.054-3.927-4.184v-.002C1.767 23.91 9.751 9.867 23.532 5.39 38.386.563 54.32 8.682 59.146 23.535z"/></svg>