<svg xmlns="http://www.w3.org/2000/svg" viewBox="0 0 64.535 64.535"><path fill="#e30613" d="M6.435 26.776c-3.024 14.222 6.067 28.22 20.29 31.243 10.903 2.318 21.677-2.479 27.472-11.261a26.3 26.3 0 0 0 3.87-9.515l1.07 4.569.921-2.15-1.527-6.493v-.002c.447-12.54-8.16-23.983-20.853-26.68-14.221-3.024-28.22 6.066-31.243 20.289zm1.444.307c2.857-13.44 16.05-22.009 29.491-19.152C49.698 10.551 57.924 21.867 57 34.094l-3.21 4.026-.78 3.668 3.58-4.85q-.004.04-.01.08l-.33 1.55a24.7 24.7 0 0 1-3.285 7.378c-5.467 8.285-15.627 12.82-25.933 10.63C13.591 53.717 5.022 40.523 7.88 27.083z"/><path fill="#e30613" d="M61.356 26.085C57.943 10.029 42.141-.233 26.086 3.18 11.505 6.278 1.703 19.59 2.577 34.032v.002L.966 40.2l.78 3.668 1.325-5.959q.052.271.108.542C6.592 54.507 22.394 64.77 38.451 61.356s26.319-19.215 22.906-35.27zm-1.444.307c3.247 15.276-6.493 30.273-21.769 33.52S7.87 53.42 4.623 38.144c-.033-.156-.096-.469-.096-.469l4.538 5.978-1.476-4.232-3.468-4.57v-.003C2.808 20.766 12.215 7.636 26.39 4.624c15.275-3.247 30.273 6.492 33.52 21.768z"/></svg>