<svg xmlns="http://www.w3.org/2000/svg" viewBox="0 0 64.535 64.535"><path fill="#e30613" d="M6.002 29.506c-1.52 14.46 8.984 27.432 23.444 28.952 11.087 1.165 21.3-4.732 26.145-14.072a26.3 26.3 0 0 0 2.854-9.867l1.543 4.432.69-2.234-2.197-6.298v-.002C57.615 17.899 47.86 7.418 34.953 6.062c-14.459-1.52-27.431 8.984-28.95 23.444zm1.469.155C8.907 15.995 21.133 6.095 34.798 7.53c12.534 1.317 21.898 11.711 22.256 23.968l-2.771 4.34-.392 3.729 3.054-5.198c-.003.027 0 .053-.003.08l-.166 1.578a24.7 24.7 0 0 1-2.496 7.68C49.71 52.518 40.08 58.09 29.6 56.988 15.936 55.553 6.036 43.327 7.472 29.661z"/><path fill="#e30613" d="M61.843 29.16C60.127 12.833 45.485.976 29.159 2.692 14.337 4.25 3.197 16.465 2.556 30.919v.002L.308 36.884l.392 3.73 1.94-5.788q.025.275.052.55C4.408 51.703 19.051 63.56 35.377 61.844c16.325-1.716 28.182-16.358 26.467-32.683zm-1.468.154c1.632 15.531-9.622 29.429-25.153 31.061S5.792 50.754 4.16 35.222c-.017-.159-.046-.476-.046-.476l3.888 6.42-1.026-4.364-2.971-4.908v-.002C4.172 17.75 14.9 5.676 29.313 4.161c15.531-1.633 29.428 9.621 31.06 25.153z"/></svg>