<svg xmlns="http://www.w3.org/2000/svg" viewBox="0 0 64.535 64.535"><path fill="#e30613" d="M5.857 32.267c0 14.54 11.802 26.342 26.342 26.342 11.148 0 20.69-6.932 24.531-16.727a26.3 26.3 0 0 0 1.807-10.111l1.998 4.246.453-2.294-2.844-6.034v-.002C55.974 15.327 45.176 5.925 32.2 5.925c-14.539 0-26.342 11.802-26.342 26.342zm1.477 0c0-13.741 11.124-24.865 24.865-24.865 12.603 0 23.002 9.358 24.639 21.51l-2.303 4.606v3.75l2.494-5.489c0 .027.006.053.006.08v1.586a24.7 24.7 0 0 1-1.68 7.899C51.73 50.585 42.735 57.133 32.2 57.133c-13.74 0-24.865-11.124-24.865-24.865z"/><path fill="#e30613" d="M62.006 32.268c0-16.415-13.323-29.738-29.738-29.738-14.904 0-27.26 10.983-29.408 25.291v.002L0 33.518v3.75l2.536-5.552q-.007.275-.007.552c0 16.415 13.323 29.738 29.74 29.738 16.414 0 29.737-13.323 29.737-29.738zm-1.477 0c0 15.617-12.645 28.262-28.262 28.262S4.005 47.885 4.005 32.268c0-.16.004-.479.004-.479l3.196 6.791-.564-4.446-2.442-5.192v-.002C5.844 14.893 17.776 4.006 32.267 4.006c15.617 0 28.262 12.645 28.262 28.262z"/></svg>