<svg xmlns="http://www.w3.org/2000/svg" viewBox="0 0 64.535 64.535"><path fill="#e30613" d="M6.002 35.028c1.52 14.46 14.49 24.964 28.951 23.444 11.087-1.165 19.851-9.057 22.648-19.2a26.3 26.3 0 0 0 .74-10.244l2.431 4.014.21-2.33-3.458-5.703v-.002C54.074 12.942 42.352 4.72 29.446 6.077c-14.46 1.519-24.964 14.49-23.444 28.95zm1.468-.155C6.034 21.208 15.934 8.982 29.6 7.545c12.534-1.317 23.854 6.903 26.753 18.817l-1.81 4.821.393 3.73 1.907-5.72q.006.04.014.08l.166 1.577a24.7 24.7 0 0 1-.845 8.03c-2.64 9.57-10.9 17.022-21.379 18.123C21.133 58.44 8.907 48.54 7.471 34.873z"/><path fill="#e30613" d="M61.843 35.377C63.559 19.05 51.7 4.409 35.376 2.693 20.554 1.135 7.118 10.766 3.486 24.77v.002L.046 30.14l-.391 3.729 3.101-5.257q-.033.273-.064.549C.976 45.485 12.834 60.127 29.16 61.843c16.325 1.716 30.968-10.141 32.683-26.466zm-1.469-.155c-1.632 15.532-15.53 26.786-31.06 25.153S2.527 44.845 4.16 29.314c.017-.159.054-.476.054-.476l2.469 7.088-.097-4.48-1.886-5.42v-.002C7.804 12.226 20.81 2.646 35.22 4.161c15.532 1.632 26.786 15.53 25.154 31.061z"/></svg>