<svg xmlns="http://www.w3.org/2000/svg" viewBox="0 0 64.535 64.535"><path fill="#e30613" d="M6.434 37.758c3.023 14.222 17.021 23.313 31.243 20.29 10.905-2.318 18.796-11.083 20.518-21.462a26.3 26.3 0 0 0-.335-10.266l2.837 3.738-.034-2.339-4.036-5.31v-.002c-4.693-11.638-17.21-18.59-29.903-15.892C12.503 9.537 3.41 23.535 6.434 37.758zm1.445-.307C5.022 24.011 13.589 10.817 27.03 7.96c12.327-2.62 24.445 4.37 28.572 15.917l-1.295 4.983.78 3.669 1.299-5.887q.011.038.022.077l.33 1.551a24.7 24.7 0 0 1-.001 8.075c-1.625 9.793-9.062 18.068-19.367 20.258-13.441 2.857-26.635-5.71-29.492-19.152z"/><path fill="#e30613" d="M61.356 38.451C64.769 22.395 54.507 6.593 38.45 3.18 23.872.08 9.503 8.255 4.427 21.804v.002L.446 26.782l-.78 3.668L3.3 25.546q-.063.268-.12.54c-3.414 16.056 6.848 31.857 22.905 35.27s31.859-6.848 35.271-22.905zm-1.444-.307c-3.247 15.276-18.245 25.015-33.52 21.768S1.375 41.668 4.621 26.392l.104-.467 1.714 7.307.373-4.467-1.31-5.586v-.002C10.034 9.779 23.969 1.61 38.144 4.623 53.418 7.87 63.158 22.868 59.91 38.143z"/></svg>