<svg xmlns="http://www.w3.org/2000/svg" viewBox="0 0 64.535 64.535"><path fill="#e30613" d="M7.15 40.428c4.493 13.829 19.364 21.406 33.193 16.913 10.602-3.445 17.534-12.986 18.161-23.489a26.3 26.3 0 0 0-1.406-10.175l3.212 3.421-.278-2.322-4.569-4.86v-.001C49.58 8.83 36.403 3.225 24.062 7.235 10.234 11.728 2.656 26.6 7.15 40.428zm1.404-.456C4.308 26.903 11.45 12.886 24.518 8.64c11.987-3.894 24.768 1.792 30.08 12.844l-.766 5.091 1.158 3.567.676-5.99q.016.036.03.074l.49 1.508a24.7 24.7 0 0 1 .844 8.03c-.592 9.91-7.123 18.917-17.143 22.173C26.818 60.183 12.8 53.04 8.555 39.972z"/><path fill="#e30613" d="M60.55 41.458c5.073-15.612-3.481-32.4-19.093-37.472C27.283-.62 12.137 6.007 5.673 18.95v.002l-4.48 4.533-1.159 3.566 4.127-4.497q-.091.26-.176.524c-5.073 15.611 3.481 32.4 19.094 37.472 15.611 5.073 32.4-3.481 37.472-19.093zM59.146 41c-4.826 14.853-20.76 22.972-35.612 18.146S.562 38.387 5.388 23.534l.152-.453.94 7.446.838-4.403L6.6 20.43v-.002C12.507 7.578 27.219.911 41 5.389 55.853 10.215 63.971 26.149 59.145 41z"/></svg>