<svg xmlns="http://www.w3.org/2000/svg" viewBox="0 0 64.535 64.535"><path fill="#e30613" d="M8.14 43.009c5.914 13.283 21.496 19.264 34.78 13.35C53.102 51.825 59 41.612 58.525 31.101a26.3 26.3 0 0 0-2.462-9.972l3.552 3.066-.52-2.28-5.051-4.356v-.001C47.034 7.15 33.344 2.952 21.49 8.23 8.209 14.143 2.226 29.726 8.14 43.009zm1.35-.6c-5.59-12.554.048-27.24 12.601-32.83 11.514-5.125 24.82-.806 31.258 9.63l-.23 5.143 1.525 3.426.046-6.028q.018.035.038.07l.645 1.45a24.7 24.7 0 0 1 1.678 7.898c.447 9.917-5.107 19.557-14.732 23.843-12.553 5.589-27.24-.05-32.829-12.602z"/><path fill="#e30613" d="M59.435 44.364C66.11 29.368 59.359 11.778 44.363 5.1 30.748-.96 14.993 4.047 7.211 16.244v.002l-4.93 4.04-1.525 3.426 4.575-4.042q-.118.25-.23.503c-6.677 14.995.075 32.586 15.071 39.263s32.586-.076 39.263-15.072zm-1.35-.6C51.735 58.03 35.04 64.438 20.773 58.085S.096 35.04 6.448 20.773c.065-.146.199-.436.199-.436l.157 7.504 1.293-4.292-.119-5.736v-.002C15.196 5.647 30.525.555 43.763 6.449 58.029 12.8 64.437 29.496 58.085 43.763z"/></svg>