<svg xmlns="http://www.w3.org/2000/svg" viewBox="0 0 64.535 64.535"><path fill="#e30613" d="M9.395 45.472c7.27 12.592 23.392 16.912 35.984 9.642C55.034 49.54 59.83 38.766 58.26 28.363a26.3 26.3 0 0 0-3.49-9.66l3.853 2.678-.755-2.214-5.48-3.803v-.002C44.327 5.744 30.275 3 19.037 9.488 6.445 16.758 2.124 32.88 9.394 45.472zm1.28-.738c-6.871-11.9-2.8-27.096 9.1-33.966 10.915-6.302 24.6-3.397 32.093 6.308l.309 5.14 1.875 3.248-.584-6q.022.033.045.066l.793 1.374a24.7 24.7 0 0 1 2.494 7.68c1.482 9.816-3.034 19.983-12.159 25.251-11.9 6.87-27.096 2.8-33.966-9.1z"/><path fill="#e30613" d="M58.021 47.137c8.208-14.216 3.331-32.415-10.884-40.623-12.908-7.452-29.1-4.118-38.114 7.199v.002l-5.325 3.502-1.875 3.248 4.972-3.541q-.143.235-.282.475C-1.694 31.615 3.183 49.814 17.4 58.022s32.415 3.331 40.623-10.884zm-1.278-.738C48.934 59.924 31.66 64.552 18.136 56.743S-.017 31.662 7.791 18.137c.08-.138.243-.413.243-.413l-.628 7.48 1.735-4.133.481-5.718.001-.002C18.071 4.01 33.848.546 46.398 7.791c13.524 7.81 18.153 25.083 10.344 38.607z"/></svg>