<svg xmlns="http://www.w3.org/2000/svg" viewBox="0 0 64.535 64.535"><path fill="#e30613" d="M10.9 47.79c8.547 11.764 25.032 14.375 36.795 5.828 9.02-6.552 12.664-17.769 10.015-27.951a26.3 26.3 0 0 0-4.482-9.242l4.112 2.26-.982-2.122-5.847-3.21-.001-.002c-9.02-8.723-23.283-9.983-33.781-2.355C4.966 19.542 2.354 36.027 10.9 47.79zm1.195-.867C4.02 35.806 6.48 20.268 17.596 12.19c10.196-7.408 24.11-5.95 32.577 2.92l.844 5.08 2.204 3.033-1.208-5.906q.027.03.052.061l.932 1.283a24.7 24.7 0 0 1 3.284 7.377c2.499 9.608-.93 20.192-9.453 26.385C35.71 60.5 20.173 58.04 12.096 46.923z"/><path fill="#e30613" d="M56.326 49.748c9.649-13.28 6.701-31.89-6.579-41.538C37.69-.55 21.237 1.072 11.09 11.385l-.001.001-5.661 2.927-2.204 3.034 5.314-3.002q-.166.22-.33.443c-9.648 13.28-6.7 31.89 6.58 41.54 13.28 9.648 31.89 6.7 41.538-6.58zm-1.195-.868c-9.179 12.634-26.842 15.432-39.476 6.252S.223 28.29 9.403 15.656c.093-.13.284-.385.284-.385l-1.406 7.372 2.157-3.928 1.076-5.636.001-.002C21.103 2.68 37.155.885 48.88 9.403c12.634 9.18 15.431 26.842 6.252 39.476z"/></svg>