<svg xmlns="http://www.w3.org/2000/svg" viewBox="0 0 64.535 64.535"><path fill="#e30613" d="M12.64 49.939c9.73 10.805 26.397 11.679 37.203 1.95 8.284-7.46 10.736-18.996 7.037-28.845a26.3 26.3 0 0 0-5.423-8.723l4.326 1.818-1.198-2.008-6.151-2.581-.001-.002c-9.883-7.732-24.2-7.495-33.843 1.189-10.804 9.728-11.679 26.396-1.95 37.202zm1.098-.988c-9.195-10.212-8.371-25.922 1.84-35.116 9.366-8.433 23.356-8.437 32.704-.502l1.37 4.963 2.51 2.787-1.82-5.747q.03.028.058.055l1.062 1.179a24.7 24.7 0 0 1 4.036 6.993c3.49 9.294 1.187 20.178-6.643 27.228-10.212 9.195-25.922 8.372-35.116-1.84z"/><path fill="#e30613" d="M54.367 52.167c10.984-12.199 9.998-31.015-2.2-41.999C41.09.196 24.558.09 13.388 9.286l-.002.001-5.935 2.32-2.51 2.786 5.6-2.43q-.188.201-.375.406C-.816 24.57.17 43.384 12.37 54.37c12.199 10.983 31.015 9.997 41.998-2.202zm-1.097-.988C42.82 62.784 24.962 63.72 13.356 53.27S.814 24.962 11.264 13.357c.107-.119.323-.353.323-.353l-2.169 7.185 2.556-3.682 1.66-5.493v-.001c10.623-9.338 26.775-9.445 37.544.251 11.605 10.45 12.541 28.308 2.091 39.914z"/></svg>