<svg xmlns="http://www.w3.org/2000/svg" viewBox="0 0 64.535 64.535"><path fill="#e30613" d="M14.595 51.894c10.806 9.729 27.473 8.855 37.202-1.95 7.46-8.284 8.692-20.013 3.984-29.423a26.3 26.3 0 0 0-6.305-8.108l4.492 1.356-1.401-1.871-6.387-1.925h-.002c-10.636-6.658-24.85-4.925-33.533 4.718-9.728 10.805-8.855 27.473 1.95 37.202zm.988-1.098C5.372 41.602 4.548 25.892 13.743 15.68c8.433-9.366 22.346-10.832 32.472-3.917l1.881 4.793 2.787 2.509-2.41-5.526c.021.018.044.032.064.05l1.179 1.06a24.7 24.7 0 0 1 4.745 6.534c4.442 8.878 3.29 19.943-3.76 27.773-9.195 10.212-24.905 11.035-35.117 1.84z"/><path fill="#e30613" d="M52.166 54.368c12.199-10.984 13.185-29.8 2.201-41.998C44.394 1.294 27.965-.54 15.894 7.438l-.001.001-6.146 1.686-2.787 2.51 5.823-1.832q-.208.18-.415.365c-12.198 10.984-13.185 29.8-2.2 42 10.984 12.198 29.8 13.184 41.998 2.2zm-.988-1.098c-11.606 10.45-29.464 9.514-39.914-2.091S1.75 21.715 13.356 11.265c.119-.107.358-.317.358-.317l-2.908 6.919 2.927-3.395 2.224-5.289.002-.001c11.54-8.177 27.614-6.595 37.31 4.174 10.45 11.606 9.514 29.464-2.091 39.914z"/></svg>