<svg xmlns="http://www.w3.org/2000/svg" viewBox="0 0 64.535 64.535"><path fill="#e30613" d="M16.744 53.634c11.763 8.546 28.248 5.935 36.794-5.828 6.553-9.02 6.553-20.813.887-29.678a26.3 26.3 0 0 0-7.119-7.405l4.61.88-1.59-1.716-6.553-1.246h-.001c-11.274-5.51-25.229-2.3-32.856 8.198C2.37 28.6 4.98 45.087 16.743 53.633zm.867-1.195c-11.116-8.077-13.577-23.615-5.5-34.732C19.518 7.511 33.2 4.6 43.995 10.417l2.372 4.57 3.034 2.204-2.974-5.243q.034.021.068.042l1.283.932a24.7 24.7 0 0 1 5.403 6.002c5.346 8.365 5.356 19.49-.837 28.014-8.077 11.117-23.615 13.578-34.732 5.5z"/><path fill="#e30613" d="M49.747 56.327c13.28-9.649 16.227-28.258 6.579-41.538C47.566 2.73 31.417-.81 18.579 5.863h-.001L12.29 6.899 9.256 9.102l5.982-1.212q-.226.156-.45.32C1.507 17.857-1.44 36.466 8.207 49.747c9.65 13.28 28.259 16.228 41.539 6.58zm-.868-1.195c-12.634 9.18-30.297 6.382-39.476-6.252S3.02 18.583 15.655 9.403c.13-.094.39-.278.39-.278l-3.616 6.577 3.266-3.07 2.765-5.027.001-.002c12.331-6.925 28.153-3.671 36.67 8.052 9.18 12.634 6.382 30.297-6.252 39.476z"/></svg>