<svg xmlns="http://www.w3.org/2000/svg" viewBox="0 0 64.535 64.535"><path fill="#e30613" d="M19.062 55.14c12.592 7.27 28.714 2.95 35.984-9.643 5.574-9.654 4.34-21.383-2.22-29.608a26.3 26.3 0 0 0-7.854-6.62l4.676.393-1.76-1.54-6.647-.554-.002-.001c-11.788-4.3-25.33.35-31.82 11.588C2.15 31.746 6.47 47.87 19.063 55.14zm.738-1.28C7.9 46.99 3.83 31.794 10.7 19.894 17.001 8.98 30.304 4.653 41.647 9.311l2.837 4.297 3.247 1.875-3.505-4.904q.035.018.072.035l1.373.793a24.7 24.7 0 0 1 6 5.404c6.191 7.76 7.364 18.823 2.096 27.948-6.87 11.9-22.066 15.972-33.966 9.101z"/><path fill="#e30613" d="M47.136 58.022c14.216-8.208 19.093-26.407 10.885-40.623C50.57 4.492 34.88-.717 21.414 4.577h-.001l-6.362.372-3.248 1.875 6.077-.581q-.242.134-.482.27C3.182 14.722-1.695 32.922 6.513 47.139c8.208 14.215 26.408 19.092 40.623 10.885zm-.738-1.279C32.873 64.552 15.6 59.923 7.791 46.4S4.611 15.6 18.136 7.792c.138-.08.416-.236.416-.236L14.27 13.72l3.569-2.712 3.275-4.71.002-.002C34.102.696 49.497 5.586 56.742 18.136c7.809 13.525 3.18 30.798-10.344 38.607z"/></svg>