<svg xmlns="http://www.w3.org/2000/svg" viewBox="0 0 64.535 64.535"><path fill="#e30613" d="M21.525 56.394c13.283 5.914 28.865-.067 34.779-13.35C60.838 32.86 58.386 21.324 51 13.83a26.3 26.3 0 0 0-8.503-5.763l4.692-.098-1.912-1.347-6.668.143h-.002C26.435 3.72 13.453 9.76 8.174 21.615c-5.913 13.282.068 28.865 13.35 34.779zm.6-1.349C9.574 49.456 3.936 34.77 9.525 22.216 14.65 10.703 27.429 5.01 39.196 8.456l3.27 3.977 3.426 1.526-4-4.511c.026.01.052.016.077.027l1.448.645a24.7 24.7 0 0 1 6.533 4.747c6.968 7.07 9.29 17.951 5.005 27.576-5.589 12.553-20.276 18.19-32.829 12.602z"/><path fill="#e30613" d="M44.363 59.435C59.359 52.76 66.11 35.168 59.434 20.173 53.372 6.557 38.314-.264 24.368 3.593l-.001.002L18 3.299l-3.426 1.525 6.104.058q-.256.107-.508.219C5.175 11.777-1.577 29.367 5.101 44.364c6.676 14.996 24.266 21.748 39.262 15.072zm-.6-1.349C29.494 64.438 12.8 58.03 6.447 43.763S6.505 12.8 20.772 6.449c.146-.065.439-.191.439-.191l-4.904 5.682 3.832-2.324 3.75-4.343.002-.001c13.501-4.21 28.3 2.261 34.194 15.5 6.352 14.267-.056 30.961-14.323 37.313z"/></svg>