<svg xmlns="http://www.w3.org/2000/svg" viewBox="0 0 64.535 64.535"><path fill="#e30613" d="M24.106 57.385c13.828 4.493 28.7-3.084 33.193-16.913 3.445-10.602-.2-21.818-8.328-28.499a26.3 26.3 0 0 0-9.058-4.843l4.655-.588-2.042-1.14-6.617.84h-.002C23.483 4.486 11.203 11.85 7.193 24.192c-4.493 13.827 3.084 28.7 16.913 33.193zm.456-1.404C11.494 51.734 4.352 37.717 8.598 24.649c3.894-11.986 16.008-18.985 28.07-16.786l3.67 3.613 3.566 1.159-4.45-4.068c.027.008.053.011.079.019l1.508.49a24.7 24.7 0 0 1 6.993 4.038c7.669 6.304 11.116 16.882 7.86 26.902-4.246 13.068-18.263 20.21-31.331 15.964z"/><path fill="#e30613" d="M41.457 60.55c15.611-5.072 24.165-21.86 19.093-37.472C55.944 8.904 41.68.547 27.409 2.925h-.002l-6.3-.959-3.566 1.16 6.064.694q-.264.08-.528.165C7.466 9.058-1.088 25.845 3.985 41.458c5.072 15.612 21.86 24.166 37.472 19.093zM41 59.147c-14.852 4.826-30.786-3.292-35.612-18.145S8.681 10.215 23.534 5.389c.151-.05.456-.144.456-.144l-5.471 5.138 4.054-1.911 4.184-3.927h.002c13.867-2.777 27.909 5.207 32.387 18.988C63.972 38.386 55.853 54.32 41 59.146z"/></svg>