<svg xmlns="http://www.w3.org/2000/svg" viewBox="0 0 64.535 64.535"><path fill="#e30613" d="M26.776 58.1c14.222 3.024 28.22-6.067 31.243-20.29 2.318-10.903-2.479-21.677-11.261-27.472a26.3 26.3 0 0 0-9.515-3.87l4.569-1.07-2.15-.921-6.493 1.527h-.002c-12.54-.447-23.983 8.16-26.68 20.853-3.024 14.221 6.066 28.22 20.289 31.243zm.307-1.444C13.643 53.8 5.074 40.606 7.931 27.165 10.551 14.837 21.867 6.61 34.094 7.536l4.026 3.21 3.668.78-4.85-3.58q.04.004.08.01l1.55.33a24.7 24.7 0 0 1 7.378 3.285c8.285 5.467 12.82 15.627 10.63 25.933-2.858 13.44-16.052 22.009-29.492 19.152z"/><path fill="#e30613" d="M38.45 61.356c16.056-3.413 26.318-19.215 22.905-35.27-3.098-14.58-16.41-24.382-30.852-23.508H30.5L24.335.966l-3.668.78 5.959 1.325q-.271.052-.542.108C10.028 6.592-.234 22.394 3.179 38.451s19.215 26.319 35.27 22.906zm-.307-1.444C22.867 63.159 7.87 53.419 4.623 38.143S11.115 7.87 26.39 4.623c.156-.033.469-.096.469-.096l-5.978 4.538 4.232-1.476 4.57-3.468h.003c14.082-1.312 27.212 8.095 30.224 22.27 3.247 15.275-6.492 30.273-21.768 33.52z"/></svg>