<svg xmlns="http://www.w3.org/2000/svg" viewBox="0 0 64.535 64.535"><path fill="#e30613" d="M29.506 58.533c14.46 1.52 27.432-8.984 28.952-23.444 1.165-11.087-4.732-21.3-14.072-26.145A26.3 26.3 0 0 0 34.52 6.09l4.432-1.543-2.234-.69-6.298 2.197h-.002C17.899 6.92 7.418 16.676 6.062 29.582c-1.52 14.459 8.984 27.431 23.444 28.95zm.155-1.469C15.995 55.628 6.095 43.402 7.53 29.737 8.848 17.203 19.242 7.839 31.499 7.48l4.34 2.771 3.729.392L34.37 7.59c.027.003.053 0 .08.003l1.578.166a24.7 24.7 0 0 1 7.68 2.496c8.811 4.571 14.383 14.201 13.281 24.68C55.553 48.6 43.327 58.5 29.661 57.063z"/><path fill="#e30613" d="M35.376 61.843C51.7 60.127 63.558 45.485 61.842 29.159 60.284 14.337 48.07 3.197 33.616 2.556h-.002L27.65.308 23.92.7l5.788 1.94q-.275.024-.55.052C12.832 4.408.975 19.051 2.691 35.377 4.408 51.702 19.05 63.559 35.375 61.844zm-.155-1.468C19.69 62.007 5.792 50.753 4.16 35.222S13.78 5.792 29.313 4.16c.159-.017.476-.046.476-.046l-6.42 3.888 4.364-1.026 4.908-2.971h.002c14.142.167 26.216 10.896 27.731 25.308 1.633 15.531-9.621 29.428-25.153 31.06z"/></svg>