<?xml version="1.0" encoding="UTF-8"?>
<svg version="1.1" viewBox="0 0 64.535 64.535" xmlns="http://www.w3.org/2000/svg">
  <path
    d="m32.268 5.8573c-14.54 0-26.342 11.802-26.342 26.342 0 11.148 6.9322 20.689 16.727 24.531 2.9796 1.1688 6.2238 1.8105 9.6152 1.8105 0.16549 0 0.33132-8.61e-4 0.49609-0.0039l-4.2461 1.9981 2.2943 0.45312 6.0338-2.8437h2e-3c12.359-2.1699 21.762-12.968 21.762-25.945-1e-6 -14.539-11.802-26.342-26.342-26.342zm0 1.4766c13.741 0 24.865 11.124 24.865 24.865 0 12.603-9.3581 23.002-21.51 24.639l-4.6055-2.3027h-3.75l5.4883 2.4941c-0.02705 5.28e-4 -0.05301 0.0054-0.08008 0.0059h-1.5859c-2.7773-0.12923-5.4336-0.71283-7.8984-1.6797-9.2414-3.6252-15.789-12.62-15.789-23.156 0-13.741 11.124-24.865 24.865-24.865z"
    fill="#e30613" transform="rotate($$1$$, 32.2675, 32.2675)" />
  <path
    d="m32.268 2.5291c-16.415 0-29.738 13.323-29.738 29.738 0 14.904 10.983 27.26 25.291 29.408h0.0019l5.6953 2.8594h3.75l-5.5527-2.5352c0.18359 0.0033 0.36835 0.0063 0.55273 0.0063 16.415 0 29.738-13.323 29.738-29.739 5e-5 -16.415-13.323-29.738-29.738-29.738zm0 1.4766c15.617 0 28.262 12.645 28.262 28.262s-12.645 28.262-28.262 28.262c-0.15963 0-0.47852-0.0039-0.47852-0.0039l6.791-3.1959-4.4465 0.56415-5.1921 2.4423h-2e-3c-14.047-1.6449-24.934-13.577-24.934-28.068 0-15.617 12.645-28.262 28.262-28.262z"
    fill="#e30613" transform="rotate($$2$$, 32.2675, 32.2675)" />
</svg>